<svg width="30" height="30" viewBox="0 0 30 30" fill="none" xmlns="http://www.w3.org/2000/svg">
<g id="&#231;&#155;&#174;&#229;&#189;&#149; 1">
<path id="Vector" d="M23.7773 7.7373H11.0801C10.5 7.7373 10.0254 7.2627 10.0254 6.68262C10.0254 6.10254 10.5 5.62793 11.0801 5.62793H23.7803C24.3604 5.62793 24.835 6.10254 24.835 6.68262C24.832 7.2627 24.3574 7.7373 23.7773 7.7373ZM23.7773 15.2959H11.0801C10.5 15.2959 10.0254 14.8213 10.0254 14.2412C10.0254 13.6611 10.5 13.1865 11.0801 13.1865H23.7803C24.3604 13.1865 24.835 13.6611 24.835 14.2412C24.832 14.8213 24.3574 15.2959 23.7773 15.2959ZM23.7773 22.8545H11.0801C10.5 22.8545 10.0254 22.3799 10.0254 21.7998C10.0254 21.2197 10.5 20.7451 11.0801 20.7451H23.7803C24.3604 20.7451 24.835 21.2197 24.835 21.7998C24.832 22.3799 24.3574 22.8545 23.7773 22.8545Z" fill="#667080"/>
<path id="Vector_2" d="M5.04785 6.70898C5.04785 7.00347 5.16483 7.28589 5.37307 7.49412C5.5813 7.70235 5.86372 7.81934 6.1582 7.81934C6.45269 7.81934 6.73511 7.70235 6.94334 7.49412C7.15157 7.28589 7.26855 7.00347 7.26855 6.70898C7.26855 6.4145 7.15157 6.13208 6.94334 5.92385C6.73511 5.71562 6.45269 5.59863 6.1582 5.59863C5.86372 5.59863 5.5813 5.71562 5.37307 5.92385C5.16483 6.13208 5.04785 6.4145 5.04785 6.70898Z" fill="#667080"/>
<path id="Vector_3" d="M5.04785 14.2676C5.04785 14.5621 5.16483 14.8445 5.37307 15.0527C5.5813 15.2609 5.86372 15.3779 6.1582 15.3779C6.45269 15.3779 6.73511 15.2609 6.94334 15.0527C7.15157 14.8445 7.26855 14.5621 7.26855 14.2676C7.26855 13.9731 7.15157 13.6907 6.94334 13.4824C6.73511 13.2742 6.45269 13.1572 6.1582 13.1572C5.86372 13.1572 5.5813 13.2742 5.37307 13.4824C5.16483 13.6907 5.04785 13.9731 5.04785 14.2676Z" fill="#667080"/>
<path id="Vector_4" d="M5.04785 21.8262C5.04785 22.1207 5.16483 22.4031 5.37307 22.6113C5.5813 22.8195 5.86372 22.9365 6.1582 22.9365C6.45269 22.9365 6.73511 22.8195 6.94334 22.6113C7.15157 22.4031 7.26855 22.1207 7.26855 21.8262C7.26855 21.5317 7.15157 21.2493 6.94334 21.041C6.73511 20.8328 6.45269 20.7158 6.1582 20.7158C5.86372 20.7158 5.5813 20.8328 5.37307 21.041C5.16483 21.2493 5.04785 21.5317 5.04785 21.8262Z" fill="#667080"/>
</g>
</svg>
