<svg width="22" height="22" viewBox="0 0 22 22" fill="none" xmlns="http://www.w3.org/2000/svg">
<g id="menu&#232;&#143;&#156;&#229;&#141;&#149;3 1" clip-path="url(#clip0_162_146)">
<path id="Vector" d="M5.04167 0C2.29167 0 0 2.29167 0 5.04167C0 7.79167 2.29167 10.0833 5.04167 10.0833H9.16667C9.71667 10.0833 10.0833 9.71667 10.0833 9.16667V5.04167C10.0833 2.29167 7.79167 0 5.04167 0ZM8.25 8.25H5.04167C3.3 8.25 1.83333 6.78333 1.83333 5.04167C1.83333 3.3 3.3 1.83333 5.04167 1.83333C6.78333 1.83333 8.25 3.3 8.25 5.04167V8.25ZM9.16667 11.9167H5.04167C2.29167 11.9167 0 14.2083 0 16.9583C0 19.7083 2.29167 22 5.04167 22C7.79167 22 10.0833 19.7083 10.0833 16.9583V12.8333C10.0833 12.2833 9.71667 11.9167 9.16667 11.9167ZM8.25 16.9583C8.25 18.7 6.78333 20.1667 5.04167 20.1667C3.3 20.1667 1.83333 18.7 1.83333 16.9583C1.83333 15.2167 3.3 13.75 5.04167 13.75H8.25V16.9583ZM16.9583 0C14.2083 0 11.9167 2.29167 11.9167 5.04167V9.16667C11.9167 9.71667 12.2833 10.0833 12.8333 10.0833H16.9583C19.7083 10.0833 22 7.79167 22 5.04167C22 2.29167 19.7083 0 16.9583 0ZM16.9583 8.25H13.75V5.04167C13.75 3.3 15.2167 1.83333 16.9583 1.83333C18.7 1.83333 20.1667 3.3 20.1667 5.04167C20.1667 6.78333 18.7 8.25 16.9583 8.25ZM16.9583 11.9167H12.8333C12.2833 11.9167 11.9167 12.2833 11.9167 12.8333V16.9583C11.9167 19.7083 14.2083 22 16.9583 22C19.7083 22 22 19.7083 22 16.9583C22 14.2083 19.7083 11.9167 16.9583 11.9167ZM16.9583 20.1667C15.2167 20.1667 13.75 18.7 13.75 16.9583V13.75H16.9583C18.7 13.75 20.1667 15.2167 20.1667 16.9583C20.1667 18.7 18.7 20.1667 16.9583 20.1667Z" fill="#667080"/>
</g>
<defs>
<clipPath id="clip0_162_146">
<rect width="22" height="22" fill="white"/>
</clipPath>
</defs>
</svg>
