<svg width="30" height="30" viewBox="0 0 30 30" fill="none" xmlns="http://www.w3.org/2000/svg">
<g id="&#233;&#152;&#133;&#232;&#175;&#187;&#232;&#191;&#155;&#229;&#186;&#166; 2">
<path id="Vector" d="M2.57125 13.75C2.50024 14.3723 2.48226 14.9996 2.5175 15.625H0.9375C0.68886 15.625 0.450403 15.5262 0.274587 15.3504C0.0987721 15.1746 0 14.9361 0 14.6875C0 14.4389 0.0987721 14.2004 0.274587 14.0246C0.450403 13.8488 0.68886 13.75 0.9375 13.75H2.57125ZM24.3575 15.625H28.4375C28.6861 15.625 28.9246 15.5262 29.1004 15.3504C29.2762 15.1746 29.375 14.9361 29.375 14.6875C29.375 14.4389 29.2762 14.2004 29.1004 14.0246C28.9246 13.8488 28.6861 13.75 28.4375 13.75H24.305C24.3755 14.3724 24.3931 14.9996 24.3575 15.625Z" fill="#667080"/>
<path id="Vector_2" d="M13.4375 23.125C11.2826 23.125 9.21599 22.269 7.69226 20.7452C6.16852 19.2215 5.3125 17.1549 5.3125 15C5.3125 12.8451 6.16852 10.7785 7.69226 9.25476C9.21599 7.73102 11.2826 6.875 13.4375 6.875C15.5924 6.875 17.659 7.73102 19.1827 9.25476C20.7065 10.7785 21.5625 12.8451 21.5625 15C21.5625 17.1549 20.7065 19.2215 19.1827 20.7452C17.659 22.269 15.5924 23.125 13.4375 23.125ZM13.4375 25C14.7507 25 16.0511 24.7413 17.2643 24.2388C18.4776 23.7362 19.58 22.9997 20.5086 22.0711C21.4372 21.1425 22.1738 20.0401 22.6763 18.8268C23.1788 17.6136 23.4375 16.3132 23.4375 15C23.4375 13.6868 23.1788 12.3864 22.6763 11.1732C22.1738 9.95991 21.4372 8.85752 20.5086 7.92893C19.58 7.00035 18.4776 6.26375 17.2643 5.7612C16.0511 5.25866 14.7507 5 13.4375 5C10.7853 5 8.2418 6.05357 6.36643 7.92893C4.49107 9.8043 3.4375 12.3478 3.4375 15C3.4375 17.6522 4.49107 20.1957 6.36643 22.0711C8.2418 23.9464 10.7853 25 13.4375 25Z" fill="#667080"/>
</g>
</svg>
