<svg width="26" height="26" viewBox="0 0 26 26" fill="none" xmlns="http://www.w3.org/2000/svg">
<g id="&#229;&#173;&#151;&#228;&#189;&#147;&#229;&#164;&#167;&#229;&#176;&#143; 1">
<path id="Vector" d="M12.1831 16.25H5.15007L2.9834 21.6667H0.649902L7.58324 4.33333H9.7499L16.6832 21.6667H14.3497L12.1831 16.25ZM11.3164 14.0833L8.66657 7.45875L6.01674 14.0833H11.3164ZM22.7499 13.5796V13H24.9166V21.6667H22.7499V21.0871C22.0911 21.467 21.344 21.6669 20.5835 21.6667C19.823 21.6664 19.0759 21.466 18.4174 21.0856C17.7589 20.7052 17.2121 20.1582 16.8319 19.4996C16.4517 18.8409 16.2516 18.0938 16.2516 17.3333C16.2516 16.5728 16.4517 15.8257 16.8319 15.1671C17.2121 14.5084 17.7589 13.9614 18.4174 13.581C19.0759 13.2006 19.823 13.0003 20.5835 13C21.344 12.9997 22.0911 13.1996 22.7499 13.5796ZM20.5832 19.5C20.8678 19.5 21.1495 19.444 21.4124 19.3351C21.6753 19.2262 21.9141 19.0666 22.1153 18.8654C22.3165 18.6642 22.4761 18.4253 22.585 18.1625C22.6939 17.8996 22.7499 17.6179 22.7499 17.3333C22.7499 17.0488 22.6939 16.7671 22.585 16.5042C22.4761 16.2413 22.3165 16.0025 22.1153 15.8013C21.9141 15.6001 21.6753 15.4405 21.4124 15.3316C21.1495 15.2227 20.8678 15.1667 20.5832 15.1667C20.0086 15.1667 19.4575 15.3949 19.0512 15.8013C18.6448 16.2076 18.4166 16.7587 18.4166 17.3333C18.4166 17.908 18.6448 18.4591 19.0512 18.8654C19.4575 19.2717 20.0086 19.5 20.5832 19.5Z" fill="#667080"/>
</g>
</svg>
