<svg width="29" height="28" viewBox="0 0 29 28" fill="none" xmlns="http://www.w3.org/2000/svg">
<g id="&#228;&#186;&#174;&#229;&#186;&#166; 1">
<path id="Vector" d="M8.81893 19.7828C8.89075 19.8546 8.94772 19.9398 8.98659 20.0336C9.02547 20.1275 9.04547 20.228 9.04547 20.3296C9.04547 20.4311 9.02547 20.5317 8.98659 20.6255C8.94772 20.7193 8.89075 20.8045 8.81893 20.8763L7.92448 21.7708C7.77869 21.9115 7.58348 21.9894 7.38086 21.9876C7.17824 21.9859 6.98441 21.9046 6.84107 21.7614C6.69774 21.6182 6.61637 21.4244 6.61447 21.2218C6.61258 21.0192 6.6903 20.8239 6.83093 20.678L7.72615 19.7836C7.87111 19.6387 8.06764 19.5574 8.27254 19.5574C8.47744 19.5574 8.67396 19.6387 8.81893 19.7836V19.7828ZM21.3902 19.7828L22.2854 20.678C22.3593 20.7493 22.4183 20.8346 22.4589 20.9289C22.4995 21.0232 22.521 21.1247 22.5219 21.2274C22.5229 21.3301 22.5034 21.4319 22.4645 21.527C22.4257 21.6221 22.3683 21.7085 22.2957 21.7811C22.2231 21.8538 22.1368 21.9112 22.0417 21.9501C21.9467 21.989 21.8448 22.0086 21.7421 22.0077C21.6395 22.0068 21.538 21.9855 21.4436 21.9449C21.3493 21.9044 21.2639 21.8455 21.1926 21.7716L20.2974 20.8763C20.2234 20.8051 20.1644 20.7198 20.1238 20.6254C20.0832 20.5311 20.0618 20.4296 20.0608 20.327C20.0599 20.2243 20.0794 20.1224 20.1182 20.0273C20.1571 19.9323 20.2144 19.8459 20.287 19.7732C20.3596 19.7006 20.446 19.6431 20.541 19.6042C20.6361 19.5653 20.7379 19.5457 20.8406 19.5466C20.9433 19.5475 21.0448 19.5689 21.1391 19.6094C21.2335 19.65 21.3188 19.7089 21.3902 19.7828ZM14.5076 7.17889C15.4154 7.16923 16.3161 7.33969 17.1575 7.68039C17.999 8.0211 18.7646 8.5253 19.4099 9.16381C20.0553 9.80232 20.5676 10.5625 20.9172 11.4003C21.2669 12.2381 21.4469 13.1369 21.4469 14.0447C21.4469 14.9526 21.2669 15.8514 20.9172 16.6892C20.5676 17.527 20.0553 18.2871 19.4099 18.9256C18.7646 19.5642 17.999 20.0684 17.1575 20.4091C16.3161 20.7498 15.4154 20.9202 14.5076 20.9106C12.6993 20.8913 10.9716 20.1595 9.69975 18.874C8.42786 17.5885 7.71445 15.8531 7.71445 14.0447C7.71445 12.2364 8.42786 10.501 9.69975 9.21548C10.9716 7.92998 12.6993 7.19814 14.5076 7.17889ZM14.5076 8.72434C13.0966 8.72434 11.7435 9.28484 10.7458 10.2825C9.74809 11.2802 9.18759 12.6334 9.18759 14.0443C9.18759 15.4553 9.74809 16.8085 10.7458 17.8061C11.7435 18.8038 13.0966 19.3643 14.5076 19.3643C15.9185 19.3643 17.2717 18.8038 18.2694 17.8061C19.2671 16.8085 19.8276 15.4553 19.8276 14.0443C19.8276 12.6334 19.2671 11.2802 18.2694 10.2825C17.2717 9.28484 15.9185 8.72434 14.5076 8.72434ZM22.2232 6.37934C22.295 6.45113 22.3519 6.53637 22.3908 6.63019C22.4297 6.72401 22.4497 6.82457 22.4497 6.92612C22.4497 7.02767 22.4297 7.12822 22.3908 7.22204C22.3519 7.31586 22.295 7.4011 22.2232 7.47289L21.3287 8.36734C21.1829 8.50807 20.9877 8.58593 20.7851 8.58418C20.5825 8.58242 20.3886 8.50119 20.2453 8.35796C20.102 8.21473 20.0206 8.02096 20.0187 7.81834C20.0168 7.61572 20.0945 7.42045 20.2351 7.27456L21.1296 6.38012C21.2014 6.3083 21.2866 6.25132 21.3804 6.21245C21.4743 6.17358 21.5748 6.15357 21.6764 6.15357C21.7779 6.15357 21.8785 6.17358 21.9723 6.21245C22.0661 6.25132 22.1514 6.3083 22.2232 6.38012V6.37934ZM7.98593 6.37934L8.88115 7.27456C9.02188 7.42035 9.09974 7.61556 9.09799 7.81818C9.09624 8.0208 9.015 8.21464 8.87177 8.35797C8.72854 8.5013 8.53477 8.58267 8.33215 8.58457C8.12953 8.58647 7.93426 8.50874 7.78837 8.36812L6.89315 7.47212C6.74803 7.32721 6.66642 7.13058 6.66628 6.9255C6.66613 6.72042 6.74746 6.52368 6.89237 6.37856C7.03728 6.23344 7.23391 6.15184 7.43899 6.15169C7.64407 6.15154 7.84081 6.23287 7.98593 6.37778V6.37934ZM14.5582 3.11656C14.9852 3.11656 15.3313 3.46267 15.3313 3.88967V5.15589C15.3312 5.36091 15.2498 5.55752 15.1048 5.70247C14.9598 5.84743 14.7632 5.92886 14.5582 5.92886C14.3531 5.92886 14.1565 5.84743 14.0115 5.70247C13.8665 5.55752 13.7851 5.36091 13.785 5.15589V3.8889C13.785 3.4619 14.1312 3.11578 14.5582 3.11578V3.11656ZM14.5582 22.0726C14.9852 22.0726 15.3313 22.4187 15.3313 22.8457V24.1111C15.3312 24.3161 15.2498 24.5127 15.1048 24.6577C14.9598 24.8026 14.7632 24.8841 14.5582 24.8841C14.3531 24.8841 14.1565 24.8026 14.0115 24.6577C13.8665 24.5127 13.7851 24.3161 13.785 24.1111V22.8449C13.785 22.4179 14.1312 22.0718 14.5582 22.0718V22.0726ZM3.63037 14.0443C3.63037 13.6166 3.97648 13.2712 4.40348 13.2712H5.66893C5.77246 13.2679 5.87561 13.2855 5.97223 13.3229C6.06885 13.3602 6.15698 13.4166 6.23138 13.4887C6.30578 13.5608 6.36494 13.6471 6.40534 13.7424C6.44574 13.8378 6.46656 13.9404 6.46656 14.044C6.46656 14.1475 6.44574 14.2501 6.40534 14.3455C6.36494 14.4408 6.30578 14.5271 6.23138 14.5992C6.15698 14.6713 6.06885 14.7277 5.97223 14.765C5.87561 14.8024 5.77246 14.82 5.66893 14.8167H4.40426C4.19935 14.8167 4.00283 14.7353 3.85786 14.5905C3.7129 14.4457 3.63135 14.2492 3.63115 14.0443H3.63037ZM22.5864 14.0443C22.5864 13.6166 22.9325 13.2712 23.3595 13.2712H24.6257C24.7292 13.2679 24.8324 13.2855 24.929 13.3229C25.0256 13.3602 25.1138 13.4166 25.1882 13.4887C25.2626 13.5608 25.3217 13.6471 25.3621 13.7424C25.4025 13.8378 25.4233 13.9404 25.4233 14.044C25.4233 14.1475 25.4025 14.2501 25.3621 14.3455C25.3217 14.4408 25.2626 14.5271 25.1882 14.5992C25.1138 14.6713 25.0256 14.7277 24.929 14.765C24.8324 14.8024 24.7292 14.82 24.6257 14.8167H23.3587C23.1538 14.8167 22.9573 14.7353 22.8123 14.5905C22.6673 14.4457 22.5858 14.2492 22.5856 14.0443H22.5864Z" fill="#667080"/>
</g>
</svg>
