<svg width="80" height="51" viewBox="0 0 80 51" fill="none" xmlns="http://www.w3.org/2000/svg">
<rect x="0.5" width="79" height="51" rx="16" fill="#F1F1F1"/>
<g clip-path="url(#clip0_94_491)">
<path d="M50.2128 37.989H29.755C28.5267 37.989 27.5273 36.9897 27.5273 35.7614V19.5259C27.5273 18.2976 28.5267 17.2982 29.755 17.2982H31.9053C32.3773 17.2982 32.7598 17.6808 32.7598 18.1527C32.7598 18.6246 32.3773 19.0072 31.9053 19.0072H29.755C29.469 19.0072 29.2363 19.2399 29.2363 19.5259V35.7613C29.2363 36.0473 29.469 36.28 29.755 36.28H50.2128C50.4988 36.28 50.7315 36.0473 50.7315 35.7613V19.5259C50.7315 19.2399 50.4988 19.0072 50.2128 19.0072H41.8804C41.4084 19.0072 41.0259 18.6246 41.0259 18.1527C41.0259 17.6808 41.4084 17.2982 41.8804 17.2982H50.2128C51.4411 17.2982 52.4405 18.2976 52.4405 19.5259V35.7613C52.4405 36.9897 51.4411 37.989 50.2128 37.989Z" fill="#667080"/>
<path d="M32.8501 37.9756C32.3782 37.9756 31.9956 37.593 31.9956 37.1211C31.9956 36.6492 32.3782 36.2666 32.8501 36.2666C35.1404 36.2666 36.7425 35.6426 37.6119 34.4119C37.8851 34.0251 38.04 33.6403 38.1277 33.3325C38.1259 33.3086 38.1252 33.2847 38.1254 33.2608L38.14 31.5567C37.8999 30.2796 37.2371 29.201 36.1609 28.34C35.1233 27.51 34.0692 27.195 34.0588 27.1921C33.6916 27.0875 33.4383 26.752 33.4383 26.3702V13.8747C33.4383 13.7575 33.4624 13.6416 33.5091 13.5341C33.5558 13.4266 33.6242 13.3299 33.7099 13.2499C33.7956 13.17 33.8968 13.1085 34.0073 13.0693C34.1177 13.0302 34.2351 13.0142 34.352 13.0223C34.4113 13.0264 35.8197 13.1351 37.2049 14.1815C38.0125 14.7916 38.6539 15.5942 39.1111 16.5669C39.662 17.7389 39.9414 19.1581 39.9414 20.785L39.9413 20.7923L39.8502 31.4211C39.9172 31.8309 39.9511 32.2539 39.9511 32.6887V32.6918C39.9506 32.8328 39.9198 34.1069 39.0077 35.3979C38.4673 36.1629 37.7314 36.7695 36.8203 37.2009C35.7345 37.7149 34.3987 37.9756 32.8501 37.9756ZM35.1473 25.7747C35.6681 25.9926 36.4493 26.3823 37.2285 27.0056C37.5747 27.2826 37.8893 27.5801 38.1714 27.8964L38.2324 20.7812C38.2316 18.3783 37.5611 16.6332 36.2393 15.5948C35.8604 15.2972 35.4766 15.1002 35.1473 14.9704V25.7747Z" fill="#667080"/>
</g>
<defs>
<clipPath id="clip0_94_491">
<rect width="25" height="25" fill="white" transform="translate(27.5 13)"/>
</clipPath>
</defs>
</svg>
