<svg width="184" height="242" viewBox="0 0 184 242" fill="none" xmlns="http://www.w3.org/2000/svg">
<g filter="url(#filter0_d_972_89)">
<rect x="29" y="14.9976" width="120" height="171.429" rx="18.31" fill="white"/>
<path d="M96 90.9976H82C80.8954 90.9976 80 91.8931 80 92.9976V106.998C80 108.102 80.8954 108.998 82 108.998H96C97.1046 108.998 98 108.102 98 106.998V92.9976C98 91.8931 97.1046 90.9976 96 90.9976Z" stroke="#667080" stroke-width="2" stroke-linecap="round" stroke-linejoin="round"/>
<path d="M85.5 97.9976C86.3284 97.9976 87 97.326 87 96.4976C87 95.6692 86.3284 94.9976 85.5 94.9976C84.6716 94.9976 84 95.6692 84 96.4976C84 97.326 84.6716 97.9976 85.5 97.9976Z" stroke="#667080" stroke-width="2" stroke-linecap="round" stroke-linejoin="round"/>
<path d="M98 102.998L93 97.9976L82 108.998" stroke="#667080" stroke-width="2" stroke-linecap="round" stroke-linejoin="round"/>
</g>
<defs>
<filter id="filter0_d_972_89" x="-6" y="-0.00238037" width="190" height="241.429" filterUnits="userSpaceOnUse" color-interpolation-filters="sRGB">
<feFlood flood-opacity="0" result="BackgroundImageFix"/>
<feColorMatrix in="SourceAlpha" type="matrix" values="0 0 0 0 0 0 0 0 0 0 0 0 0 0 0 0 0 0 127 0" result="hardAlpha"/>
<feOffset dy="20"/>
<feGaussianBlur stdDeviation="17.5"/>
<feComposite in2="hardAlpha" operator="out"/>
<feColorMatrix type="matrix" values="0 0 0 0 0 0 0 0 0 0 0 0 0 0 0 0 0 0 0.05 0"/>
<feBlend mode="normal" in2="BackgroundImageFix" result="effect1_dropShadow_972_89"/>
<feBlend mode="normal" in="SourceGraphic" in2="effect1_dropShadow_972_89" result="shape"/>
</filter>
</defs>
</svg>
