<svg width="372" height="49" viewBox="0 0 372 49" fill="none" xmlns="http://www.w3.org/2000/svg">
<rect y="-0.00241089" width="372" height="49" rx="15" fill="#EEF1F4"/>
<path d="M36.3645 32.6041L32.9636 29.2434L32.8839 29.1209C32.7357 28.9718 32.5331 28.8877 32.3216 28.8877C32.11 28.8877 31.9074 28.9718 31.7592 29.1209C28.869 31.8009 24.4156 31.9466 21.3524 29.4613C18.2891 26.976 17.5667 22.631 19.6642 19.3078C21.7616 15.9846 26.0281 14.7144 29.6341 16.3397C33.2401 17.965 35.0667 21.9814 33.9024 25.7252C33.8186 25.9956 33.8871 26.2898 34.0822 26.4968C34.2773 26.7037 34.5693 26.7922 34.8483 26.7287C35.1272 26.6652 35.3507 26.4595 35.4346 26.189C36.8264 21.7462 34.7243 16.9651 30.4882 14.9386C26.2522 12.9122 21.1533 14.2484 18.4902 18.083C15.827 21.9176 16.3988 27.0997 19.8356 30.2771C23.2724 33.4544 28.5428 33.6735 32.2374 30.7925L35.2486 33.7681C35.5596 34.0741 36.0623 34.0741 36.3733 33.7681C36.684 33.4578 36.684 32.9582 36.3733 32.6479L36.3645 32.6041Z" fill="black" fill-opacity="0.6"/>
<path d="M52.056 30.1256C51.1493 30.1256 50.3493 30.0083 49.656 29.7736C48.9627 29.5389 48.344 29.1976 47.8 28.7496L48.216 27.9336C48.6 28.2323 48.9733 28.4776 49.336 28.6696C49.7093 28.8616 50.1147 29.0056 50.552 29.1016C50.9893 29.1869 51.4853 29.2296 52.04 29.2296C53.032 29.2296 53.7787 29.0376 54.28 28.6536C54.7813 28.2589 55.032 27.7416 55.032 27.1016C55.032 26.5469 54.856 26.1256 54.504 25.8376C54.1627 25.5389 53.56 25.3043 52.696 25.1336L51.064 24.7976C50.0293 24.5843 49.256 24.2429 48.744 23.7736C48.2427 23.3043 47.992 22.6643 47.992 21.8536C47.992 21.1923 48.1627 20.6163 48.504 20.1256C48.8453 19.6349 49.32 19.2563 49.928 18.9896C50.536 18.7229 51.24 18.5896 52.04 18.5896C52.84 18.5896 53.5653 18.7123 54.216 18.9576C54.8773 19.1923 55.4427 19.5443 55.912 20.0136L55.512 20.8136C55.0107 20.3443 54.4827 20.0083 53.928 19.8056C53.3733 19.5923 52.744 19.4856 52.04 19.4856C51.112 19.4856 50.376 19.6989 49.832 20.1256C49.288 20.5416 49.016 21.1069 49.016 21.8216C49.016 22.3976 49.1867 22.8456 49.528 23.1656C49.88 23.4856 50.4453 23.7256 51.224 23.8856L52.872 24.2216C53.9707 24.4456 54.776 24.7763 55.288 25.2136C55.8 25.6403 56.056 26.2536 56.056 27.0536C56.056 27.6616 55.8907 28.2003 55.56 28.6696C55.24 29.1283 54.7813 29.4856 54.184 29.7416C53.5867 29.9976 52.8773 30.1256 52.056 30.1256ZM61.5805 30.1256C60.3645 30.1256 59.3992 29.7629 58.6845 29.0376C57.9805 28.3123 57.6285 27.3043 57.6285 26.0136C57.6285 25.1603 57.7832 24.4243 58.0925 23.8056C58.4125 23.1869 58.8552 22.7069 59.4205 22.3656C59.9858 22.0136 60.6418 21.8376 61.3885 21.8376C62.1032 21.8376 62.7058 21.9923 63.1965 22.3016C63.6872 22.6003 64.0658 23.0323 64.3325 23.5976C64.5992 24.1523 64.7325 24.8136 64.7325 25.5816V26.0296H58.3325V25.3256H64.1245L63.8525 25.5336C63.8525 24.6269 63.6445 23.9176 63.2285 23.4056C62.8125 22.8829 62.1938 22.6216 61.3725 22.6216C60.4978 22.6216 59.8152 22.9256 59.3245 23.5336C58.8338 24.1309 58.5885 24.9256 58.5885 25.9176V26.0296C58.5885 27.0963 58.8498 27.9069 59.3725 28.4616C59.9058 29.0163 60.6472 29.2936 61.5965 29.2936C62.0872 29.2936 62.5458 29.2189 62.9725 29.0696C63.3992 28.9203 63.8098 28.6643 64.2045 28.3016L64.6045 29.0216C64.2632 29.3736 63.8205 29.6456 63.2765 29.8376C62.7325 30.0296 62.1672 30.1256 61.5805 30.1256ZM69.868 30.1256C69.1427 30.1256 68.5133 29.9603 67.98 29.6296C67.4467 29.2989 67.036 28.8243 66.748 28.2056C66.46 27.5869 66.316 26.8456 66.316 25.9816C66.316 25.1176 66.46 24.3816 66.748 23.7736C67.0467 23.1549 67.4627 22.6803 67.996 22.3496C68.5293 22.0083 69.1533 21.8376 69.868 21.8376C70.604 21.8376 71.2387 22.0296 71.772 22.4136C72.316 22.7976 72.6733 23.3203 72.844 23.9816H72.652L72.812 21.9816H73.756C73.724 22.2909 73.692 22.5949 73.66 22.8936C73.6387 23.1923 73.628 23.4856 73.628 23.7736V29.9976H72.652V27.9976H72.828C72.6573 28.6589 72.3 29.1816 71.756 29.5656C71.2227 29.9389 70.5933 30.1256 69.868 30.1256ZM69.996 29.2936C70.8173 29.2936 71.468 29.0109 71.948 28.4456C72.428 27.8803 72.668 27.0589 72.668 25.9816C72.668 24.9043 72.428 24.0829 71.948 23.5176C71.468 22.9523 70.8173 22.6696 69.996 22.6696C69.1747 22.6696 68.5187 22.9523 68.028 23.5176C67.548 24.0829 67.308 24.9043 67.308 25.9816C67.308 27.0589 67.548 27.8803 68.028 28.4456C68.5187 29.0109 69.1747 29.2936 69.996 29.2936ZM76.2651 29.9976V23.8536C76.2651 23.5443 76.2545 23.2349 76.2331 22.9256C76.2225 22.6056 76.1958 22.2909 76.1531 21.9816H77.1131L77.2411 23.8216L77.0491 23.8376C77.1558 23.3896 77.3478 23.0216 77.6251 22.7336C77.9025 22.4349 78.2225 22.2109 78.5851 22.0616C78.9478 21.9123 79.3211 21.8376 79.7051 21.8376C79.8438 21.8376 79.9718 21.8483 80.0891 21.8696C80.2171 21.8803 80.3345 21.9016 80.4411 21.9336L80.4091 22.8136C80.2811 22.7709 80.1531 22.7443 80.0251 22.7336C79.8971 22.7229 79.7585 22.7176 79.6091 22.7176C79.1291 22.7176 78.7078 22.8349 78.3451 23.0696C77.9931 23.3043 77.7211 23.6029 77.5291 23.9656C77.3371 24.3283 77.2411 24.6963 77.2411 25.0696V29.9976H76.2651ZM84.9975 30.1256C84.2402 30.1256 83.5788 29.9603 83.0135 29.6296C82.4482 29.2883 82.0108 28.8029 81.7015 28.1736C81.4028 27.5443 81.2535 26.7976 81.2535 25.9336C81.2535 25.0696 81.4082 24.3336 81.7175 23.7256C82.0268 23.1069 82.4588 22.6376 83.0135 22.3176C83.5788 21.9976 84.2402 21.8376 84.9975 21.8376C85.5095 21.8376 86.0002 21.9336 86.4695 22.1256C86.9495 22.3176 87.3442 22.5843 87.6535 22.9256L87.2535 23.6456C86.9228 23.3149 86.5655 23.0749 86.1815 22.9256C85.7975 22.7656 85.4135 22.6856 85.0295 22.6856C84.1548 22.6856 83.4722 22.9629 82.9815 23.5176C82.4908 24.0723 82.2455 24.8829 82.2455 25.9496C82.2455 27.0163 82.4908 27.8429 82.9815 28.4296C83.4722 29.0056 84.1548 29.2936 85.0295 29.2936C85.3922 29.2936 85.7655 29.2189 86.1495 29.0696C86.5442 28.9203 86.9122 28.6749 87.2535 28.3336L87.6535 29.0536C87.3335 29.3949 86.9282 29.6616 86.4375 29.8536C85.9575 30.0349 85.4775 30.1256 84.9975 30.1256ZM89.6249 29.9976V18.2216H90.6009V23.8376H90.4089C90.6329 23.1869 91.0115 22.6909 91.5449 22.3496C92.0782 22.0083 92.6969 21.8376 93.4009 21.8376C94.3715 21.8376 95.0862 22.0936 95.5449 22.6056C96.0142 23.1176 96.2489 23.8856 96.2489 24.9096V29.9976H95.2729V24.9896C95.2729 24.1789 95.1129 23.5923 94.7929 23.2296C94.4729 22.8669 93.9609 22.6856 93.2569 22.6856C92.4569 22.6856 91.8115 22.9309 91.3209 23.4216C90.8409 23.9123 90.6009 24.5629 90.6009 25.3736V29.9976H89.6249Z" fill="black" fill-opacity="0.4"/>
</svg>
