<svg width="20" height="14" viewBox="0 0 20 14" fill="none" xmlns="http://www.w3.org/2000/svg">
<path d="M0.996399 3.9976H3.9976C4.05762 3.9976 4.10564 3.9976 4.16567 3.98559C4.57383 5.16207 5.69028 6.0024 6.9988 6.0024C8.30732 6.0024 9.41177 5.16207 9.83193 3.9976H19.0036C19.5558 3.9976 20 3.55342 20 3.0012C20 2.44898 19.5558 2.0048 19.0036 2.0048H9.83193C9.42377 0.840336 8.30732 0 6.9988 0C5.69028 0 4.57383 0.840336 4.16567 2.01681C4.10564 2.0048 4.05762 2.0048 3.9976 2.0048H0.996399C0.444178 2.0048 0 2.44898 0 3.0012C0 3.55342 0.444178 3.9976 0.996399 3.9976ZM6.9988 1.9928C7.55102 1.9928 7.9952 2.43698 7.9952 2.9892C7.9952 3.54142 7.55102 3.98559 6.9988 3.98559C6.44658 3.98559 6.0024 3.54142 6.0024 2.9892C6.0024 2.44898 6.44658 1.9928 6.9988 1.9928ZM19.0036 10H16.3265C15.9184 8.83554 14.8019 7.9952 13.4934 7.9952C12.1849 7.9952 11.0684 8.83554 10.6603 10.012C10.6002 10 10.5522 10 10.4922 10H0.996399C0.444178 10 0 10.4442 0 10.9964C0 11.5486 0.444178 11.9928 0.996399 11.9928H10.5042C10.5642 11.9928 10.6122 11.9928 10.6723 11.9808C11.0804 13.1573 12.1969 13.9976 13.5054 13.9976C14.8139 13.9976 15.9184 13.1573 16.3385 11.9928H19.0036C19.5558 11.9928 20 11.5486 20 10.9964C20 10.4442 19.5558 10 19.0036 10ZM13.5054 12.0048C12.9532 12.0048 12.509 11.5606 12.509 11.0084C12.509 10.4562 12.9532 10.012 13.5054 10.012C14.0576 10.012 14.5018 10.4562 14.5018 11.0084C14.5018 11.5486 14.0576 12.0048 13.5054 12.0048Z" fill="#667080"/>
</svg>
