<svg width="24" height="24" viewBox="0 0 24 24" fill="none" xmlns="http://www.w3.org/2000/svg">
<path d="M4.8001 5.54999C4.68075 5.54999 4.56629 5.5974 4.4819 5.68179C4.39751 5.76618 4.3501 5.88064 4.3501 5.99999V18C4.3501 18.2484 4.5517 18.45 4.8001 18.45H19.2001C19.3194 18.45 19.4339 18.4026 19.5183 18.3182C19.6027 18.2338 19.6501 18.1193 19.6501 18V5.99999C19.6501 5.88064 19.6027 5.76618 19.5183 5.68179C19.4339 5.5974 19.3194 5.54999 19.2001 5.54999H4.8001ZM4.8001 4.04999H19.2001C20.2765 4.04999 21.1501 4.92359 21.1501 5.99999V18C21.1501 19.0764 20.2765 19.95 19.2001 19.95H4.8001C4.54402 19.95 4.29045 19.8995 4.05386 19.8016C3.81728 19.7036 3.60231 19.5599 3.42124 19.3788C3.05554 19.0131 2.8501 18.5172 2.8501 18V5.99999C2.8501 4.92359 3.7237 4.04999 4.8001 4.04999Z" fill="#667080"/>
<path d="M19.2 18.45C19.3194 18.45 19.4338 18.4026 19.5182 18.3182C19.6026 18.2338 19.65 18.1194 19.65 18V14.6832C19.65 14.0592 19.2972 13.4868 18.738 13.2072L16.5432 12.1104C16.2775 11.9775 15.9808 11.9188 15.6844 11.9406C15.3881 11.9624 15.1031 12.0637 14.8596 12.234L5.97962 18.45H19.2ZM19.4088 11.8656C19.9321 12.1272 20.3721 12.5294 20.6796 13.0271C20.9872 13.5247 21.1501 14.0982 21.15 14.6832V18C21.15 19.0764 20.2764 19.95 19.2 19.95H5.12282C4.86111 19.9502 4.60617 19.8668 4.39507 19.7122C4.18396 19.5575 4.02771 19.3395 3.94901 19.0899C3.87032 18.8403 3.87329 18.5721 3.95749 18.3243C4.0417 18.0765 4.20275 17.862 4.41722 17.712L13.9992 11.0052C14.4641 10.6799 15.0082 10.4863 15.5741 10.4446C16.14 10.403 16.7066 10.515 17.214 10.7688L19.4088 11.8656Z" fill="#667080"/>
<path d="M7.8001 10.2C8.11836 10.2 8.42358 10.0736 8.64863 9.84852C8.87367 9.62347 9.0001 9.31825 9.0001 8.99999C9.0001 8.68173 8.87367 8.3765 8.64863 8.15146C8.42358 7.92642 8.11836 7.79999 7.8001 7.79999C7.48184 7.79999 7.17661 7.92642 6.95157 8.15146C6.72653 8.3765 6.6001 8.68173 6.6001 8.99999C6.6001 9.31825 6.72653 9.62347 6.95157 9.84852C7.17661 10.0736 7.48184 10.2 7.8001 10.2Z" fill="#667080"/>
</svg>
