<svg width="24" height="24" viewBox="0 0 24 24" fill="none" xmlns="http://www.w3.org/2000/svg">
<path d="M12 22.8C6.04795 22.8 1.19995 17.952 1.19995 12C1.19995 6.04801 6.04795 1.20001 12 1.20001C17.952 1.20001 22.8 6.04801 22.8 12C22.8 12.408 22.488 12.72 22.08 12.72C21.672 12.72 21.36 12.408 21.36 12C21.36 6.84001 17.16 2.64001 12 2.64001C6.83995 2.64001 2.63995 6.84001 2.63995 12C2.63995 17.16 6.83995 21.36 12 21.36C12.408 21.36 12.72 21.672 12.72 22.08C12.72 22.488 12.408 22.8 12 22.8Z" fill="#667080"/>
<path d="M12 22.8C6.04795 22.8 1.19995 17.952 1.19995 12C1.19995 6.04801 6.04795 1.20001 12 1.20001C17.952 1.20001 22.8 6.04801 22.8 12C22.8 13.968 22.272 15.864 21.264 17.544C21.048 17.88 20.616 18 20.28 17.784C19.944 17.568 19.824 17.136 20.04 16.8C20.904 15.36 21.36 13.68 21.36 12C21.36 6.84001 17.16 2.64001 12 2.64001C6.83995 2.64001 2.63995 6.84001 2.63995 12C2.63995 17.16 6.83995 21.36 12 21.36C14.136 21.36 16.152 20.664 17.808 19.32C17.952 19.2 18.12 19.056 18.264 18.936C18.384 18.84 18.48 18.72 18.6 18.624C18.888 18.336 19.344 18.336 19.608 18.624C19.896 18.912 19.896 19.368 19.608 19.632C19.488 19.752 19.368 19.872 19.224 19.992C19.056 20.136 18.888 20.304 18.696 20.448C16.8 21.984 14.472 22.8 12 22.8Z" fill="#667080"/>
<path d="M17.6399 8.25602C17.4239 8.25602 17.2079 8.16002 17.0639 7.99202C16.0799 6.74402 14.6639 5.90402 13.0799 5.61602C12.6959 5.54402 12.4319 5.18402 12.5039 4.77602C12.5759 4.39202 12.9359 4.12802 13.3439 4.20002C15.2639 4.53602 16.9919 5.54402 18.1919 7.08002C18.4319 7.39202 18.3839 7.84802 18.0719 8.08802C17.9519 8.20802 17.8079 8.25602 17.6399 8.25602ZM8.95188 18.648C8.39988 18.648 7.84788 18.504 7.34388 18.216C6.59988 17.784 6.04788 17.088 5.83188 16.248C5.61588 15.408 5.71188 14.544 6.14388 13.8C6.57588 13.056 7.27188 12.504 8.11188 12.288L9.83988 11.832C10.6799 11.616 11.5439 11.712 12.2879 12.144C13.0319 12.576 13.5839 13.272 13.7999 14.112C14.0159 14.952 13.9199 15.816 13.4879 16.56C13.0559 17.304 12.3599 17.856 11.5199 18.072L9.79188 18.528C9.52788 18.6 9.23988 18.648 8.95188 18.648ZM10.6799 13.152C10.5119 13.152 10.3679 13.176 10.2239 13.224L8.49588 13.68C8.03988 13.8 7.65588 14.112 7.41588 14.52C7.17588 14.928 7.10388 15.432 7.24788 15.888C7.36788 16.344 7.67988 16.728 8.08788 16.968C8.49588 17.208 8.99988 17.28 9.45588 17.136L11.1839 16.68C11.6159 16.56 11.9999 16.248 12.2399 15.84C12.4799 15.432 12.5519 14.928 12.4079 14.472C12.2879 14.016 11.9759 13.632 11.5679 13.392C11.3039 13.224 10.9919 13.152 10.6799 13.152Z" fill="#667080"/>
<path d="M13.2 15.6C12.792 15.6 12.48 15.288 12.48 14.88V5.04001C12.48 4.63201 12.792 4.32001 13.2 4.32001C13.608 4.32001 13.92 4.63201 13.92 5.04001V14.88C13.92 15.288 13.608 15.6 13.2 15.6Z" fill="#667080"/>
</svg>
