<?xml version="1.0" standalone="no"?><!DOCTYPE svg PUBLIC "-//W3C//DTD SVG 1.1//EN" "http://www.w3.org/Graphics/SVG/1.1/DTD/svg11.dtd"><svg t="1716895393229" class="icon" viewBox="0 0 1024 1024" version="1.1" xmlns="http://www.w3.org/2000/svg" p-id="2732" xmlns:xlink="http://www.w3.org/1999/xlink" width="200" height="200"><path d="M783.1 848.5c-79.8 64.7-175.9 96.6-271.7 96.6-111 0-221.6-42.8-305.9-127.1-147.3-147.3-168-374.8-54.8-544.7l29.5 96.9c2.9 9.6 11.7 15.8 21.3 15.8 2.1 0 4.3-0.3 6.5-1 11.8-3.6 18.4-16 14.8-27.8l-41.9-137.3c-2.9-9.6-11.7-15.6-21.2-15.7h-2.2c-3.8 0-7.5 0.9-10.8 2.8L15.8 246.9C4 250.4-2.6 262.9 1 274.6c3.6 11.8 16 18.4 27.8 14.8l73.2-22.3c-48.2 80.3-71.8 173.6-67.1 268.6C40.7 654.1 90.1 765.5 174 849.4c83.9 83.9 195.3 133.3 313.7 139.1 7.9 0.4 15.8 0.6 23.6 0.6 109.2 0 214.9-37.2 299.8-106.1 9.6-7.7 11-21.8 3.3-31.3-7.8-9.5-21.8-11-31.3-3.2zM1023 749.4c-3.6-11.8-16-18.4-27.8-14.8L922 756.9c48.2-80.3 71.8-173.6 67.1-268.6-5.8-118.4-55.2-229.8-139.1-313.7C766.2 90.7 654.8 41.3 536.4 35.5 418.8 29.7 303.9 67.2 212.9 141c-9.6 7.7-11 21.8-3.3 31.3 7.7 9.6 21.8 11 31.3 3.3C413.2 35.9 661.5 49 818.6 206.1c147.3 147.3 168 374.8 54.8 544.6l-29.5-96.8c-3.6-11.8-16-18.4-27.8-14.8-11.8 3.6-18.4 16-14.8 27.8l41.9 137.3c1.7 5.6 5.6 10.4 10.8 13.2 3.3 1.7 6.9 2.6 10.5 2.6 0.3 0 0.7-0.1 1-0.1 0.3 0 0.6 0.1 1 0.1 3.9 0 7.7-1 11.1-3l130.8-39.9c11.6-3.5 18.2-16 14.6-27.7z" p-id="2733"></path></svg>